<svg width="37" height="21" viewBox="0 0 37 21" fill="none" xmlns="http://www.w3.org/2000/svg">
<path d="M2.17828 11.2937C1.717 10.7258 1.73269 9.90799 2.21542 9.35822L9.18089 1.42542C9.46569 1.10107 9.87641 0.915131 10.308 0.915131H32.3188C34.2518 0.915131 35.8188 2.48213 35.8188 4.41513V16.9804C35.8188 18.9134 34.2518 20.4804 32.3188 20.4804H10.3547C9.90293 20.4804 9.47523 20.2768 9.1904 19.9262L2.17828 11.2937Z" fill="#E44E7B" stroke="#372A43"/>
<path d="M19.2193 5.03613L21.4702 8.84025H21.5574L23.8191 5.03613H26.4842L23.0779 10.617L26.5605 16.1978H23.8464L21.5574 12.3882H21.4702L19.1812 16.1978H16.4779L19.9714 10.617L16.5433 5.03613H19.2193Z" fill="#E44E7B"/>
<path d="M19.2193 5.03613L19.6496 4.78152L19.5044 4.53613H19.2193V5.03613ZM21.4702 8.84025L21.0398 9.09486L21.185 9.34025H21.4702V8.84025ZM21.5574 8.84025V9.34025H21.8418L21.9871 9.09577L21.5574 8.84025ZM23.8191 5.03613V4.53613H23.5347L23.3893 4.78061L23.8191 5.03613ZM26.4842 5.03613L26.911 5.29662L27.3751 4.53613H26.4842V5.03613ZM23.0779 10.617L22.6511 10.3565L22.4904 10.6199L22.6537 10.8817L23.0779 10.617ZM26.5605 16.1978V16.6978H27.4619L26.9847 15.9331L26.5605 16.1978ZM23.8464 16.1978L23.4178 16.4553L23.5635 16.6978H23.8464V16.1978ZM21.5574 12.3882L21.9859 12.1307L21.8403 11.8882H21.5574V12.3882ZM21.4702 12.3882V11.8882H21.1873L21.0416 12.1307L21.4702 12.3882ZM19.1812 16.1978V16.6978H19.464L19.6097 16.4553L19.1812 16.1978ZM16.4779 16.1978L16.0541 15.9325L15.5751 16.6978H16.4779V16.1978ZM19.9714 10.617L20.3952 10.8823L20.5597 10.6194L20.3975 10.3553L19.9714 10.617ZM16.5433 5.03613V4.53613H15.6494L16.1173 5.29783L16.5433 5.03613ZM18.789 5.29074L21.0398 9.09486L21.9005 8.58564L19.6496 4.78152L18.789 5.29074ZM21.4702 9.34025H21.5574V8.34025H21.4702V9.34025ZM21.9871 9.09577L24.2489 5.29166L23.3893 4.78061L21.1276 8.58472L21.9871 9.09577ZM23.8191 5.53613H26.4842V4.53613H23.8191V5.53613ZM26.0574 4.77564L22.6511 10.3565L23.5047 10.8774L26.911 5.29662L26.0574 4.77564ZM22.6537 10.8817L26.1363 16.4625L26.9847 15.9331L23.5021 10.3523L22.6537 10.8817ZM26.5605 15.6978H23.8464V16.6978H26.5605V15.6978ZM24.275 15.9403L21.9859 12.1307L21.1288 12.6457L23.4178 16.4553L24.275 15.9403ZM21.5574 11.8882H21.4702V12.8882H21.5574V11.8882ZM21.0416 12.1307L18.7526 15.9403L19.6097 16.4553L21.8987 12.6457L21.0416 12.1307ZM19.1812 15.6978H16.4779V16.6978H19.1812V15.6978ZM16.9018 16.4631L20.3952 10.8823L19.5476 10.3517L16.0541 15.9325L16.9018 16.4631ZM20.3975 10.3553L16.9694 4.77443L16.1173 5.29783L19.5454 10.8787L20.3975 10.3553ZM16.5433 5.53613H19.2193V4.53613H16.5433V5.53613Z" fill="#372A43"/>
</svg>
